<?xml version="1.0" encoding="UTF-8" standalone="no"?>
<!-- Created with Inkscape (http://www.inkscape.org/) -->

<svg
   xmlns:dc="http://purl.org/dc/elements/1.1/"
   xmlns:cc="http://creativecommons.org/ns#"
   xmlns:rdf="http://www.w3.org/1999/02/22-rdf-syntax-ns#"
   xmlns:svg="http://www.w3.org/2000/svg"
   xmlns="http://www.w3.org/2000/svg"
   xmlns:sodipodi="http://sodipodi.sourceforge.net/DTD/sodipodi-0.dtd"
   xmlns:inkscape="http://www.inkscape.org/namespaces/inkscape"
   width="732.5"
   height="552.5"
   id="svg2"
   version="1.1"
   inkscape:version="0.47 r22583"
   sodipodi:docname="scheme.svg">
  <defs
     id="defs4">
    <marker
       inkscape:stockid="Arrow1Mstart"
       orient="auto"
       refY="0.0"
       refX="0.0"
       id="Arrow1Mstart"
       style="overflow:visible">
      <path
         id="path4590"
         d="M 0.0,0.0 L 5.0,-5.0 L -12.5,0.0 L 5.0,5.0 L 0.0,0.0 z "
         style="fill-rule:evenodd;stroke:#000000;stroke-width:1.0pt;marker-start:none"
         transform="scale(0.4) translate(10,0)" />
    </marker>
    <marker
       inkscape:stockid="Arrow1Mend"
       orient="auto"
       refY="0.0"
       refX="0.0"
       id="Arrow1Mend"
       style="overflow:visible;">
      <path
         id="path4593"
         d="M 0.0,0.0 L 5.0,-5.0 L -12.5,0.0 L 5.0,5.0 L 0.0,0.0 z "
         style="fill-rule:evenodd;stroke:#000000;stroke-width:1.0pt;marker-start:none;"
         transform="scale(0.4) rotate(180) translate(10,0)" />
    </marker>
    <marker
       inkscape:stockid="Arrow1Send"
       orient="auto"
       refY="0.0"
       refX="0.0"
       id="Arrow1Send"
       style="overflow:visible;">
      <path
         id="path4599"
         d="M 0.0,0.0 L 5.0,-5.0 L -12.5,0.0 L 5.0,5.0 L 0.0,0.0 z "
         style="fill-rule:evenodd;stroke:#000000;stroke-width:1.0pt;marker-start:none;"
         transform="scale(0.2) rotate(180) translate(6,0)" />
    </marker>
    <inkscape:perspective
       sodipodi:type="inkscape:persp3d"
       inkscape:vp_x="0 : 526.18109 : 1"
       inkscape:vp_y="0 : 1000 : 0"
       inkscape:vp_z="744.09448 : 526.18109 : 1"
       inkscape:persp3d-origin="372.04724 : 350.78739 : 1"
       id="perspective10" />
    <clipPath
       id="clipPath3246"
       clipPathUnits="userSpaceOnUse">
      <path
         id="path3248"
         d="m 123.4125,44.1 352.8,0 0,352.8 -352.8,0 0,-352.8 z" />
    </clipPath>
    <clipPath
       id="clipPath3236"
       clipPathUnits="userSpaceOnUse">
      <path
         id="path3238"
         d="m 123.4125,44.1 352.8,0 0,352.8 -352.8,0 0,-352.8 z" />
    </clipPath>
    <clipPath
       id="clipPath3226"
       clipPathUnits="userSpaceOnUse">
      <path
         id="path3228"
         d="m 123.4125,44.1 352.8,0 0,352.8 -352.8,0 0,-352.8 z" />
    </clipPath>
    <clipPath
       id="clipPath3216"
       clipPathUnits="userSpaceOnUse">
      <path
         id="path3218"
         d="m 123.4125,44.1 352.8,0 0,352.8 -352.8,0 0,-352.8 z" />
    </clipPath>
    <clipPath
       id="clipPath3206"
       clipPathUnits="userSpaceOnUse">
      <path
         id="path3208"
         d="m 123.4125,44.1 352.8,0 0,352.8 -352.8,0 0,-352.8 z" />
    </clipPath>
    <clipPath
       id="clipPath3196"
       clipPathUnits="userSpaceOnUse">
      <path
         id="path3198"
         d="m 123.4125,44.1 352.8,0 0,352.8 -352.8,0 0,-352.8 z" />
    </clipPath>
    <clipPath
       id="clipPath3186"
       clipPathUnits="userSpaceOnUse">
      <path
         id="path3188"
         d="m 123.4125,44.1 352.8,0 0,352.8 -352.8,0 0,-352.8 z" />
    </clipPath>
    <clipPath
       id="clipPath3176"
       clipPathUnits="userSpaceOnUse">
      <path
         id="path3178"
         d="m 123.4125,44.1 352.8,0 0,352.8 -352.8,0 0,-352.8 z" />
    </clipPath>
    <clipPath
       id="clipPath3166"
       clipPathUnits="userSpaceOnUse">
      <path
         id="path3168"
         d="m 123.4125,44.1 352.8,0 0,352.8 -352.8,0 0,-352.8 z" />
    </clipPath>
    <clipPath
       id="clipPath3156"
       clipPathUnits="userSpaceOnUse">
      <path
         id="path3158"
         d="m 123.4125,44.1 352.8,0 0,352.8 -352.8,0 0,-352.8 z" />
    </clipPath>
    <clipPath
       id="clipPath3146"
       clipPathUnits="userSpaceOnUse">
      <path
         id="path3148"
         d="m 123.4125,44.1 352.8,0 0,352.8 -352.8,0 0,-352.8 z" />
    </clipPath>
    <clipPath
       id="clipPath3136"
       clipPathUnits="userSpaceOnUse">
      <path
         id="path3138"
         d="m 123.4125,44.1 352.8,0 0,352.8 -352.8,0 0,-352.8 z" />
    </clipPath>
    <clipPath
       id="clipPath3126"
       clipPathUnits="userSpaceOnUse">
      <path
         id="path3128"
         d="m 123.4125,44.1 352.8,0 0,352.8 -352.8,0 0,-352.8 z" />
    </clipPath>
    <clipPath
       id="clipPath3116"
       clipPathUnits="userSpaceOnUse">
      <path
         id="path3118"
         d="m 123.4125,44.1 352.8,0 0,352.8 -352.8,0 0,-352.8 z" />
    </clipPath>
    <clipPath
       id="clipPath3106"
       clipPathUnits="userSpaceOnUse">
      <path
         id="path3108"
         d="m 123.4125,44.1 352.8,0 0,352.8 -352.8,0 0,-352.8 z" />
    </clipPath>
    <clipPath
       id="clipPath3096"
       clipPathUnits="userSpaceOnUse">
      <path
         id="path3098"
         d="m 123.4125,44.1 352.8,0 0,352.8 -352.8,0 0,-352.8 z" />
    </clipPath>
    <clipPath
       id="clipPath3086"
       clipPathUnits="userSpaceOnUse">
      <path
         id="path3088"
         d="m 123.4125,44.1 352.8,0 0,352.8 -352.8,0 0,-352.8 z" />
    </clipPath>
    <clipPath
       id="clipPath3076"
       clipPathUnits="userSpaceOnUse">
      <path
         id="path3078"
         d="m 123.4125,44.1 352.8,0 0,352.8 -352.8,0 0,-352.8 z" />
    </clipPath>
    <clipPath
       id="clipPath3066"
       clipPathUnits="userSpaceOnUse">
      <path
         id="path3068"
         d="m 123.4125,44.1 352.8,0 0,352.8 -352.8,0 0,-352.8 z" />
    </clipPath>
    <clipPath
       id="clipPath3056"
       clipPathUnits="userSpaceOnUse">
      <path
         id="path3058"
         d="m 123.4125,44.1 352.8,0 0,352.8 -352.8,0 0,-352.8 z" />
    </clipPath>
    <clipPath
       id="clipPath3046"
       clipPathUnits="userSpaceOnUse">
      <path
         id="path3048"
         d="m 123.4125,44.1 352.8,0 0,352.8 -352.8,0 0,-352.8 z" />
    </clipPath>
    <clipPath
       id="clipPath3036"
       clipPathUnits="userSpaceOnUse">
      <path
         id="path3038"
         d="m 123.4125,44.1 352.8,0 0,352.8 -352.8,0 0,-352.8 z" />
    </clipPath>
    <clipPath
       id="clipPath3026"
       clipPathUnits="userSpaceOnUse">
      <path
         id="path3028"
         d="m 123.4125,44.1 352.8,0 0,352.8 -352.8,0 0,-352.8 z" />
    </clipPath>
    <clipPath
       id="clipPath3016"
       clipPathUnits="userSpaceOnUse">
      <path
         id="path3018"
         d="m 123.4125,44.1 352.8,0 0,352.8 -352.8,0 0,-352.8 z" />
    </clipPath>
    <clipPath
       id="clipPath3006"
       clipPathUnits="userSpaceOnUse">
      <path
         id="path3008"
         d="m 123.4125,44.1 352.8,0 0,352.8 -352.8,0 0,-352.8 z" />
    </clipPath>
    <clipPath
       id="clipPath2996"
       clipPathUnits="userSpaceOnUse">
      <path
         id="path2998"
         d="m 123.4125,44.1 352.8,0 0,352.8 -352.8,0 0,-352.8 z" />
    </clipPath>
    <clipPath
       id="clipPath2986"
       clipPathUnits="userSpaceOnUse">
      <path
         id="path2988"
         d="m 123.4125,44.1 352.8,0 0,352.8 -352.8,0 0,-352.8 z" />
    </clipPath>
    <clipPath
       id="clipPath2976"
       clipPathUnits="userSpaceOnUse">
      <path
         id="path2978"
         d="m 123.4125,44.1 352.8,0 0,352.8 -352.8,0 0,-352.8 z" />
    </clipPath>
    <clipPath
       id="clipPath2966"
       clipPathUnits="userSpaceOnUse">
      <path
         id="path2968"
         d="m 123.4125,44.1 352.8,0 0,352.8 -352.8,0 0,-352.8 z" />
    </clipPath>
    <clipPath
       id="clipPath2956"
       clipPathUnits="userSpaceOnUse">
      <path
         id="path2958"
         d="m 123.4125,44.1 352.8,0 0,352.8 -352.8,0 0,-352.8 z" />
    </clipPath>
    <clipPath
       id="clipPath2946"
       clipPathUnits="userSpaceOnUse">
      <path
         id="path2948"
         d="m 123.4125,44.1 352.8,0 0,352.8 -352.8,0 0,-352.8 z" />
    </clipPath>
    <clipPath
       id="clipPath2936"
       clipPathUnits="userSpaceOnUse">
      <path
         id="path2938"
         d="m 123.4125,44.1 352.8,0 0,352.8 -352.8,0 0,-352.8 z" />
    </clipPath>
    <clipPath
       id="clipPath2926"
       clipPathUnits="userSpaceOnUse">
      <path
         id="path2928"
         d="m 123.4125,44.1 352.8,0 0,352.8 -352.8,0 0,-352.8 z" />
    </clipPath>
    <clipPath
       id="clipPath2916"
       clipPathUnits="userSpaceOnUse">
      <path
         id="path2918"
         d="m 123.4125,44.1 352.8,0 0,352.8 -352.8,0 0,-352.8 z" />
    </clipPath>
    <clipPath
       id="clipPath2906"
       clipPathUnits="userSpaceOnUse">
      <path
         id="path2908"
         d="m 123.4125,44.1 352.8,0 0,352.8 -352.8,0 0,-352.8 z" />
    </clipPath>
    <clipPath
       id="clipPath2896"
       clipPathUnits="userSpaceOnUse">
      <path
         id="path2898"
         d="m 123.4125,44.1 352.8,0 0,352.8 -352.8,0 0,-352.8 z" />
    </clipPath>
    <clipPath
       id="clipPath2886"
       clipPathUnits="userSpaceOnUse">
      <path
         id="path2888"
         d="m 123.4125,44.1 352.8,0 0,352.8 -352.8,0 0,-352.8 z" />
    </clipPath>
    <clipPath
       id="clipPath2876"
       clipPathUnits="userSpaceOnUse">
      <path
         id="path2878"
         d="m 123.4125,44.1 352.8,0 0,352.8 -352.8,0 0,-352.8 z" />
    </clipPath>
    <clipPath
       id="clipPath2866"
       clipPathUnits="userSpaceOnUse">
      <path
         id="path2868"
         d="m 123.4125,44.1 352.8,0 0,352.8 -352.8,0 0,-352.8 z" />
    </clipPath>
    <clipPath
       id="clipPath2856"
       clipPathUnits="userSpaceOnUse">
      <path
         id="path2858"
         d="m 123.4125,44.1 352.8,0 0,352.8 -352.8,0 0,-352.8 z" />
    </clipPath>
    <clipPath
       id="clipPath2846"
       clipPathUnits="userSpaceOnUse">
      <path
         id="path2848"
         d="m 123.4125,44.1 352.8,0 0,352.8 -352.8,0 0,-352.8 z" />
    </clipPath>
    <clipPath
       id="clipPath2836"
       clipPathUnits="userSpaceOnUse">
      <path
         id="path2838"
         d="m 123.4125,44.1 352.8,0 0,352.8 -352.8,0 0,-352.8 z" />
    </clipPath>
    <inkscape:perspective
       id="perspective2824"
       inkscape:persp3d-origin="0.5 : 0.33333333 : 1"
       inkscape:vp_z="1 : 0.5 : 1"
       inkscape:vp_y="0 : 1000 : 0"
       inkscape:vp_x="0 : 0.5 : 1"
       sodipodi:type="inkscape:persp3d" />
  </defs>
  <sodipodi:namedview
     id="base"
     pagecolor="#ffffff"
     bordercolor="#666666"
     borderopacity="1.0"
     inkscape:pageopacity="0.0"
     inkscape:pageshadow="2"
     inkscape:zoom="0.7"
     inkscape:cx="259.63256"
     inkscape:cy="226.68614"
     inkscape:document-units="px"
     inkscape:current-layer="layer1"
     showgrid="false"
     inkscape:window-width="1280"
     inkscape:window-height="771"
     inkscape:window-x="0"
     inkscape:window-y="1"
     inkscape:window-maximized="1" />
  <metadata
     id="metadata7">
    <rdf:RDF>
      <cc:Work
         rdf:about="">
        <dc:format>image/svg+xml</dc:format>
        <dc:type
           rdf:resource="http://purl.org/dc/dcmitype/StillImage" />
        <dc:title></dc:title>
      </cc:Work>
    </rdf:RDF>
  </metadata>
  <g
     inkscape:label="Layer 1"
     inkscape:groupmode="layer"
     id="layer1"
     transform="translate(-8.0357286,-87.54075)">
    <path
       d="m 162.92635,584.29075 441,0 0,-441 -441,0 0,441"
       style="fill:#ffffff;fill-opacity:1;fill-rule:nonzero;stroke:none"
       id="path2830" />
    <g
       id="g2832"
       transform="matrix(1.25,0,0,-1.25,8.6607286,639.41575)">
      <g
         id="g2834"
         clip-path="url(#clipPath2836)">
        <path
           d="m 123.4125,396.9 0,-352.8"
           style="fill:none;stroke:#000000;stroke-width:1;stroke-linecap:square;stroke-linejoin:round;stroke-miterlimit:10;stroke-opacity:1;stroke-dasharray:none"
           id="path2840" />
      </g>
    </g>
    <g
       id="g2842"
       transform="matrix(1.25,0,0,-1.25,8.6607286,639.41575)">
      <g
         id="g2844"
         clip-path="url(#clipPath2846)">
        <path
           d="m 141.0525,396.9 0,-352.8"
           style="fill:none;stroke:#000000;stroke-width:1;stroke-linecap:square;stroke-linejoin:round;stroke-miterlimit:10;stroke-opacity:1;stroke-dasharray:none"
           id="path2850" />
      </g>
    </g>
    <g
       id="g2852"
       transform="matrix(1.25,0,0,-1.25,8.6607286,639.41575)">
      <g
         id="g2854"
         clip-path="url(#clipPath2856)">
        <path
           d="m 158.6925,396.9 0,-352.8"
           style="fill:none;stroke:#000000;stroke-width:1;stroke-linecap:square;stroke-linejoin:round;stroke-miterlimit:10;stroke-opacity:1;stroke-dasharray:none"
           id="path2860" />
      </g>
    </g>
    <g
       id="g2862"
       transform="matrix(1.25,0,0,-1.25,8.6607286,639.41575)">
      <g
         id="g2864"
         clip-path="url(#clipPath2866)">
        <path
           d="m 176.3325,396.9 0,-352.8"
           style="fill:none;stroke:#000000;stroke-width:1;stroke-linecap:square;stroke-linejoin:round;stroke-miterlimit:10;stroke-opacity:1;stroke-dasharray:none"
           id="path2870" />
      </g>
    </g>
    <g
       id="g2872"
       transform="matrix(1.25,0,0,-1.25,8.6607286,639.41575)">
      <g
         id="g2874"
         clip-path="url(#clipPath2876)">
        <path
           d="m 193.9725,396.9 0,-352.8"
           style="fill:none;stroke:#000000;stroke-width:1;stroke-linecap:square;stroke-linejoin:round;stroke-miterlimit:10;stroke-opacity:1;stroke-dasharray:none"
           id="path2880" />
      </g>
    </g>
    <g
       id="g2882"
       transform="matrix(1.25,0,0,-1.25,8.6607286,639.41575)">
      <g
         id="g2884"
         clip-path="url(#clipPath2886)">
        <path
           d="m 211.6125,396.9 0,-352.8"
           style="fill:none;stroke:#000000;stroke-width:1;stroke-linecap:square;stroke-linejoin:round;stroke-miterlimit:10;stroke-opacity:1;stroke-dasharray:none"
           id="path2890" />
      </g>
    </g>
    <g
       id="g2892"
       transform="matrix(1.25,0,0,-1.25,8.6607286,639.41575)">
      <g
         id="g2894"
         clip-path="url(#clipPath2896)">
        <path
           d="m 229.2525,396.9 0,-352.8"
           style="fill:none;stroke:#000000;stroke-width:1;stroke-linecap:square;stroke-linejoin:round;stroke-miterlimit:10;stroke-opacity:1;stroke-dasharray:none"
           id="path2900" />
      </g>
    </g>
    <g
       id="g2902"
       transform="matrix(1.25,0,0,-1.25,8.6607286,639.41575)">
      <g
         id="g2904"
         clip-path="url(#clipPath2906)">
        <path
           d="m 246.8925,396.9 0,-352.8"
           style="fill:none;stroke:#000000;stroke-width:1;stroke-linecap:square;stroke-linejoin:round;stroke-miterlimit:10;stroke-opacity:1;stroke-dasharray:none"
           id="path2910" />
      </g>
    </g>
    <g
       id="g2912"
       transform="matrix(1.25,0,0,-1.25,8.6607286,639.41575)">
      <g
         id="g2914"
         clip-path="url(#clipPath2916)">
        <path
           d="m 264.5325,396.9 0,-352.8"
           style="fill:none;stroke:#000000;stroke-width:1;stroke-linecap:square;stroke-linejoin:round;stroke-miterlimit:10;stroke-opacity:1;stroke-dasharray:none"
           id="path2920" />
      </g>
    </g>
    <g
       id="g2922"
       transform="matrix(1.25,0,0,-1.25,8.6607286,639.41575)">
      <g
         id="g2924"
         clip-path="url(#clipPath2926)">
        <path
           d="m 282.1725,396.9 0,-352.8"
           style="fill:none;stroke:#000000;stroke-width:1;stroke-linecap:square;stroke-linejoin:round;stroke-miterlimit:10;stroke-opacity:1;stroke-dasharray:none"
           id="path2930" />
      </g>
    </g>
    <g
       id="g2932"
       transform="matrix(1.25,0,0,-1.25,8.6607286,639.41575)">
      <g
         id="g2934"
         clip-path="url(#clipPath2936)">
        <path
           d="m 299.8125,396.9 0,-352.8"
           style="fill:none;stroke:#000000;stroke-width:1;stroke-linecap:square;stroke-linejoin:round;stroke-miterlimit:10;stroke-opacity:1;stroke-dasharray:none"
           id="path2940" />
      </g>
    </g>
    <g
       id="g2942"
       transform="matrix(1.25,0,0,-1.25,8.6607286,639.41575)">
      <g
         id="g2944"
         clip-path="url(#clipPath2946)">
        <path
           d="m 317.4525,396.9 0,-352.8"
           style="fill:none;stroke:#000000;stroke-width:1;stroke-linecap:square;stroke-linejoin:round;stroke-miterlimit:10;stroke-opacity:1;stroke-dasharray:none"
           id="path2950" />
      </g>
    </g>
    <g
       id="g2952"
       transform="matrix(1.25,0,0,-1.25,8.6607286,639.41575)">
      <g
         id="g2954"
         clip-path="url(#clipPath2956)">
        <path
           d="m 335.0925,396.9 0,-352.8"
           style="fill:none;stroke:#000000;stroke-width:1;stroke-linecap:square;stroke-linejoin:round;stroke-miterlimit:10;stroke-opacity:1;stroke-dasharray:none"
           id="path2960" />
      </g>
    </g>
    <g
       id="g2962"
       transform="matrix(1.25,0,0,-1.25,8.6607286,639.41575)">
      <g
         id="g2964"
         clip-path="url(#clipPath2966)">
        <path
           d="m 352.7325,396.9 0,-352.8"
           style="fill:none;stroke:#000000;stroke-width:1;stroke-linecap:square;stroke-linejoin:round;stroke-miterlimit:10;stroke-opacity:1;stroke-dasharray:none"
           id="path2970" />
      </g>
    </g>
    <g
       id="g2972"
       transform="matrix(1.25,0,0,-1.25,8.6607286,639.41575)">
      <g
         id="g2974"
         clip-path="url(#clipPath2976)">
        <path
           d="m 370.3725,396.9 0,-352.8"
           style="fill:none;stroke:#000000;stroke-width:1;stroke-linecap:square;stroke-linejoin:round;stroke-miterlimit:10;stroke-opacity:1;stroke-dasharray:none"
           id="path2980" />
      </g>
    </g>
    <g
       id="g2982"
       transform="matrix(1.25,0,0,-1.25,8.6607286,639.41575)">
      <g
         id="g2984"
         clip-path="url(#clipPath2986)">
        <path
           d="m 388.0125,396.9 0,-352.8"
           style="fill:none;stroke:#000000;stroke-width:1;stroke-linecap:square;stroke-linejoin:round;stroke-miterlimit:10;stroke-opacity:1;stroke-dasharray:none"
           id="path2990" />
      </g>
    </g>
    <g
       id="g2992"
       transform="matrix(1.25,0,0,-1.25,8.6607286,639.41575)">
      <g
         id="g2994"
         clip-path="url(#clipPath2996)">
        <path
           d="m 405.6525,396.9 0,-352.8"
           style="fill:none;stroke:#000000;stroke-width:1;stroke-linecap:square;stroke-linejoin:round;stroke-miterlimit:10;stroke-opacity:1;stroke-dasharray:none"
           id="path3000" />
      </g>
    </g>
    <g
       id="g3002"
       transform="matrix(1.25,0,0,-1.25,8.6607286,639.41575)">
      <g
         id="g3004"
         clip-path="url(#clipPath3006)">
        <path
           d="m 423.2925,396.9 0,-352.8"
           style="fill:none;stroke:#000000;stroke-width:1;stroke-linecap:square;stroke-linejoin:round;stroke-miterlimit:10;stroke-opacity:1;stroke-dasharray:none"
           id="path3010" />
      </g>
    </g>
    <g
       id="g3012"
       transform="matrix(1.25,0,0,-1.25,8.6607286,639.41575)">
      <g
         id="g3014"
         clip-path="url(#clipPath3016)">
        <path
           d="m 440.9325,396.9 0,-352.8"
           style="fill:none;stroke:#000000;stroke-width:1;stroke-linecap:square;stroke-linejoin:round;stroke-miterlimit:10;stroke-opacity:1;stroke-dasharray:none"
           id="path3020" />
      </g>
    </g>
    <g
       id="g3022"
       transform="matrix(1.25,0,0,-1.25,8.6607286,639.41575)">
      <g
         id="g3024"
         clip-path="url(#clipPath3026)">
        <path
           d="m 458.5725,396.9 0,-352.8"
           style="fill:none;stroke:#000000;stroke-width:1;stroke-linecap:square;stroke-linejoin:round;stroke-miterlimit:10;stroke-opacity:1;stroke-dasharray:none"
           id="path3030" />
      </g>
    </g>
    <g
       id="g3032"
       transform="matrix(1.25,0,0,-1.25,8.6607286,639.41575)">
      <g
         id="g3034"
         clip-path="url(#clipPath3036)">
        <path
           d="m 476.2125,396.9 0,-352.8"
           style="fill:none;stroke:#000000;stroke-width:1;stroke-linecap:square;stroke-linejoin:round;stroke-miterlimit:10;stroke-opacity:1;stroke-dasharray:none"
           id="path3040" />
      </g>
    </g>
    <g
       id="g3042"
       transform="matrix(1.25,0,0,-1.25,8.6607286,639.41575)">
      <g
         id="g3044"
         clip-path="url(#clipPath3046)">
        <path
           d="m 123.4125,396.9 352.8,0"
           style="fill:none;stroke:#000000;stroke-width:1;stroke-linecap:square;stroke-linejoin:round;stroke-miterlimit:10;stroke-opacity:1;stroke-dasharray:none"
           id="path3050" />
      </g>
    </g>
    <g
       id="g3052"
       transform="matrix(1.25,0,0,-1.25,8.6607286,639.41575)">
      <g
         id="g3054"
         clip-path="url(#clipPath3056)">
        <path
           d="m 123.4125,379.26 352.8,0"
           style="fill:none;stroke:#000000;stroke-width:1;stroke-linecap:square;stroke-linejoin:round;stroke-miterlimit:10;stroke-opacity:1;stroke-dasharray:none"
           id="path3060" />
      </g>
    </g>
    <g
       id="g3062"
       transform="matrix(1.25,0,0,-1.25,8.6607286,639.41575)">
      <g
         id="g3064"
         clip-path="url(#clipPath3066)">
        <path
           d="m 123.4125,361.62 352.8,0"
           style="fill:none;stroke:#000000;stroke-width:1;stroke-linecap:square;stroke-linejoin:round;stroke-miterlimit:10;stroke-opacity:1;stroke-dasharray:none"
           id="path3070" />
      </g>
    </g>
    <g
       id="g3072"
       transform="matrix(1.25,0,0,-1.25,8.6607286,639.41575)">
      <g
         id="g3074"
         clip-path="url(#clipPath3076)">
        <path
           d="m 123.4125,343.98 352.8,0"
           style="fill:none;stroke:#000000;stroke-width:1;stroke-linecap:square;stroke-linejoin:round;stroke-miterlimit:10;stroke-opacity:1;stroke-dasharray:none"
           id="path3080" />
      </g>
    </g>
    <g
       id="g3082"
       transform="matrix(1.25,0,0,-1.25,8.6607286,639.41575)">
      <g
         id="g3084"
         clip-path="url(#clipPath3086)">
        <path
           d="m 123.4125,326.34 352.8,0"
           style="fill:none;stroke:#000000;stroke-width:1;stroke-linecap:square;stroke-linejoin:round;stroke-miterlimit:10;stroke-opacity:1;stroke-dasharray:none"
           id="path3090" />
      </g>
    </g>
    <g
       id="g3092"
       transform="matrix(1.25,0,0,-1.25,8.6607286,639.41575)">
      <g
         id="g3094"
         clip-path="url(#clipPath3096)">
        <path
           d="m 123.4125,308.7 352.8,0"
           style="fill:none;stroke:#000000;stroke-width:1;stroke-linecap:square;stroke-linejoin:round;stroke-miterlimit:10;stroke-opacity:1;stroke-dasharray:none"
           id="path3100" />
      </g>
    </g>
    <g
       id="g3102"
       transform="matrix(1.25,0,0,-1.25,8.6607286,639.41575)">
      <g
         id="g3104"
         clip-path="url(#clipPath3106)">
        <path
           d="m 123.4125,291.06 352.8,0"
           style="fill:none;stroke:#000000;stroke-width:1;stroke-linecap:square;stroke-linejoin:round;stroke-miterlimit:10;stroke-opacity:1;stroke-dasharray:none"
           id="path3110" />
      </g>
    </g>
    <g
       id="g3112"
       transform="matrix(1.25,0,0,-1.25,8.6607286,639.41575)">
      <g
         id="g3114"
         clip-path="url(#clipPath3116)">
        <path
           d="m 123.4125,273.42 352.8,0"
           style="fill:none;stroke:#000000;stroke-width:1;stroke-linecap:square;stroke-linejoin:round;stroke-miterlimit:10;stroke-opacity:1;stroke-dasharray:none"
           id="path3120" />
      </g>
    </g>
    <g
       id="g3122"
       transform="matrix(1.25,0,0,-1.25,8.6607286,639.41575)">
      <g
         id="g3124"
         clip-path="url(#clipPath3126)">
        <path
           d="m 123.4125,255.78 352.8,0"
           style="fill:none;stroke:#000000;stroke-width:1;stroke-linecap:square;stroke-linejoin:round;stroke-miterlimit:10;stroke-opacity:1;stroke-dasharray:none"
           id="path3130" />
      </g>
    </g>
    <g
       id="g3132"
       transform="matrix(1.25,0,0,-1.25,8.6607286,639.41575)">
      <g
         id="g3134"
         clip-path="url(#clipPath3136)">
        <path
           d="m 123.4125,238.14 352.8,0"
           style="fill:none;stroke:#000000;stroke-width:1;stroke-linecap:square;stroke-linejoin:round;stroke-miterlimit:10;stroke-opacity:1;stroke-dasharray:none"
           id="path3140" />
      </g>
    </g>
    <g
       id="g3142"
       transform="matrix(1.25,0,0,-1.25,8.6607286,639.41575)">
      <g
         id="g3144"
         clip-path="url(#clipPath3146)">
        <path
           d="m 123.4125,220.5 352.8,0"
           style="fill:none;stroke:#000000;stroke-width:1;stroke-linecap:square;stroke-linejoin:round;stroke-miterlimit:10;stroke-opacity:1;stroke-dasharray:none"
           id="path3150" />
      </g>
    </g>
    <g
       id="g3152"
       transform="matrix(1.25,0,0,-1.25,8.6607286,639.41575)">
      <g
         id="g3154"
         clip-path="url(#clipPath3156)">
        <path
           d="m 123.4125,202.86 352.8,0"
           style="fill:none;stroke:#000000;stroke-width:1;stroke-linecap:square;stroke-linejoin:round;stroke-miterlimit:10;stroke-opacity:1;stroke-dasharray:none"
           id="path3160" />
      </g>
    </g>
    <g
       id="g3162"
       transform="matrix(1.25,0,0,-1.25,8.6607286,639.41575)">
      <g
         id="g3164"
         clip-path="url(#clipPath3166)">
        <path
           d="m 123.4125,185.22 352.8,0"
           style="fill:none;stroke:#000000;stroke-width:1;stroke-linecap:square;stroke-linejoin:round;stroke-miterlimit:10;stroke-opacity:1;stroke-dasharray:none"
           id="path3170" />
      </g>
    </g>
    <g
       id="g3172"
       transform="matrix(1.25,0,0,-1.25,8.6607286,639.41575)">
      <g
         id="g3174"
         clip-path="url(#clipPath3176)">
        <path
           d="m 123.4125,167.58 352.8,0"
           style="fill:none;stroke:#000000;stroke-width:1;stroke-linecap:square;stroke-linejoin:round;stroke-miterlimit:10;stroke-opacity:1;stroke-dasharray:none"
           id="path3180" />
      </g>
    </g>
    <g
       id="g3182"
       transform="matrix(1.25,0,0,-1.25,8.6607286,639.41575)">
      <g
         id="g3184"
         clip-path="url(#clipPath3186)">
        <path
           d="m 123.4125,149.94 352.8,0"
           style="fill:none;stroke:#000000;stroke-width:1;stroke-linecap:square;stroke-linejoin:round;stroke-miterlimit:10;stroke-opacity:1;stroke-dasharray:none"
           id="path3190" />
      </g>
    </g>
    <g
       id="g3192"
       transform="matrix(1.25,0,0,-1.25,8.6607286,639.41575)">
      <g
         id="g3194"
         clip-path="url(#clipPath3196)">
        <path
           d="m 123.4125,132.3 352.8,0"
           style="fill:none;stroke:#000000;stroke-width:1;stroke-linecap:square;stroke-linejoin:round;stroke-miterlimit:10;stroke-opacity:1;stroke-dasharray:none"
           id="path3200" />
      </g>
    </g>
    <g
       id="g3202"
       transform="matrix(1.25,0,0,-1.25,8.6607286,639.41575)">
      <g
         id="g3204"
         clip-path="url(#clipPath3206)">
        <path
           d="m 123.4125,114.66 352.8,0"
           style="fill:none;stroke:#000000;stroke-width:1;stroke-linecap:square;stroke-linejoin:round;stroke-miterlimit:10;stroke-opacity:1;stroke-dasharray:none"
           id="path3210" />
      </g>
    </g>
    <g
       id="g3212"
       transform="matrix(1.25,0,0,-1.25,8.6607286,639.41575)">
      <g
         id="g3214"
         clip-path="url(#clipPath3216)">
        <path
           d="m 123.4125,97.02 352.8,0"
           style="fill:none;stroke:#000000;stroke-width:1;stroke-linecap:square;stroke-linejoin:round;stroke-miterlimit:10;stroke-opacity:1;stroke-dasharray:none"
           id="path3220" />
      </g>
    </g>
    <g
       id="g3222"
       transform="matrix(1.25,0,0,-1.25,8.6607286,639.41575)">
      <g
         id="g3224"
         clip-path="url(#clipPath3226)">
        <path
           d="m 123.4125,79.38 352.8,0"
           style="fill:none;stroke:#000000;stroke-width:1;stroke-linecap:square;stroke-linejoin:round;stroke-miterlimit:10;stroke-opacity:1;stroke-dasharray:none"
           id="path3230" />
      </g>
    </g>
    <g
       id="g3232"
       transform="matrix(1.25,0,0,-1.25,8.6607286,639.41575)">
      <g
         id="g3234"
         clip-path="url(#clipPath3236)">
        <path
           d="m 123.4125,61.74 352.8,0"
           style="fill:none;stroke:#000000;stroke-width:1;stroke-linecap:square;stroke-linejoin:round;stroke-miterlimit:10;stroke-opacity:1;stroke-dasharray:none"
           id="path3240" />
      </g>
    </g>
    <g
       id="g3242"
       transform="matrix(1.25,0,0,-1.25,8.6607286,639.41575)">
      <g
         id="g3244"
         clip-path="url(#clipPath3246)">
        <path
           d="m 123.4125,44.1 352.8,0"
           style="fill:none;stroke:#000000;stroke-width:1;stroke-linecap:square;stroke-linejoin:round;stroke-miterlimit:10;stroke-opacity:1;stroke-dasharray:none"
           id="path3250" />
      </g>
    </g>
    <path
       d="m 162.92635,584.29075 0,-5"
       style="fill:none;stroke:#000000;stroke-width:0.625;stroke-linecap:butt;stroke-linejoin:round;stroke-miterlimit:10;stroke-opacity:1;stroke-dasharray:none"
       id="path3252" />
    <path
       d="m 162.92635,143.29075 0,5"
       style="fill:none;stroke:#000000;stroke-width:0.625;stroke-linecap:butt;stroke-linejoin:round;stroke-miterlimit:10;stroke-opacity:1;stroke-dasharray:none"
       id="path3254" />
    <path
       d="m 273.17635,584.29075 0,-5"
       style="fill:none;stroke:#000000;stroke-width:0.625;stroke-linecap:butt;stroke-linejoin:round;stroke-miterlimit:10;stroke-opacity:1;stroke-dasharray:none"
       id="path3260" />
    <path
       d="m 273.17635,143.29075 0,5"
       style="fill:none;stroke:#000000;stroke-width:0.625;stroke-linecap:butt;stroke-linejoin:round;stroke-miterlimit:10;stroke-opacity:1;stroke-dasharray:none"
       id="path3262" />
    <path
       d="m 383.42635,584.29075 0,-5"
       style="fill:none;stroke:#000000;stroke-width:0.625;stroke-linecap:butt;stroke-linejoin:round;stroke-miterlimit:10;stroke-opacity:1;stroke-dasharray:none"
       id="path3268" />
    <path
       d="m 383.42635,143.29075 0,5"
       style="fill:none;stroke:#000000;stroke-width:0.625;stroke-linecap:butt;stroke-linejoin:round;stroke-miterlimit:10;stroke-opacity:1;stroke-dasharray:none"
       id="path3270" />
    <path
       d="m 493.67635,584.29075 0,-5"
       style="fill:none;stroke:#000000;stroke-width:0.625;stroke-linecap:butt;stroke-linejoin:round;stroke-miterlimit:10;stroke-opacity:1;stroke-dasharray:none"
       id="path3276" />
    <path
       d="m 493.67635,143.29075 0,5"
       style="fill:none;stroke:#000000;stroke-width:0.625;stroke-linecap:butt;stroke-linejoin:round;stroke-miterlimit:10;stroke-opacity:1;stroke-dasharray:none"
       id="path3278" />
    <path
       d="m 603.92635,584.29075 0,-5"
       style="fill:none;stroke:#000000;stroke-width:0.625;stroke-linecap:butt;stroke-linejoin:round;stroke-miterlimit:10;stroke-opacity:1;stroke-dasharray:none"
       id="path3284" />
    <path
       d="m 603.92635,143.29075 0,5"
       style="fill:none;stroke:#000000;stroke-width:0.625;stroke-linecap:butt;stroke-linejoin:round;stroke-miterlimit:10;stroke-opacity:1;stroke-dasharray:none"
       id="path3286" />
    <path
       d="m 162.92635,143.29075 5,0"
       style="fill:none;stroke:#000000;stroke-width:0.625;stroke-linecap:butt;stroke-linejoin:round;stroke-miterlimit:10;stroke-opacity:1;stroke-dasharray:none"
       id="path3292" />
    <path
       d="m 603.92635,143.29075 -5,0"
       style="fill:none;stroke:#000000;stroke-width:0.625;stroke-linecap:butt;stroke-linejoin:round;stroke-miterlimit:10;stroke-opacity:1;stroke-dasharray:none"
       id="path3294" />
    <path
       d="m 162.92635,253.54075 5,0"
       style="fill:none;stroke:#000000;stroke-width:0.625;stroke-linecap:butt;stroke-linejoin:round;stroke-miterlimit:10;stroke-opacity:1;stroke-dasharray:none"
       id="path3300" />
    <path
       d="m 603.92635,253.54075 -5,0"
       style="fill:none;stroke:#000000;stroke-width:0.625;stroke-linecap:butt;stroke-linejoin:round;stroke-miterlimit:10;stroke-opacity:1;stroke-dasharray:none"
       id="path3302" />
    <path
       d="m 162.92635,363.79075 5,0"
       style="fill:none;stroke:#000000;stroke-width:0.625;stroke-linecap:butt;stroke-linejoin:round;stroke-miterlimit:10;stroke-opacity:1;stroke-dasharray:none"
       id="path3308" />
    <path
       d="m 603.92635,363.79075 -5,0"
       style="fill:none;stroke:#000000;stroke-width:0.625;stroke-linecap:butt;stroke-linejoin:round;stroke-miterlimit:10;stroke-opacity:1;stroke-dasharray:none"
       id="path3310" />
    <path
       d="m 162.92635,474.04075 5,0"
       style="fill:none;stroke:#000000;stroke-width:0.625;stroke-linecap:butt;stroke-linejoin:round;stroke-miterlimit:10;stroke-opacity:1;stroke-dasharray:none"
       id="path3316" />
    <path
       d="m 603.92635,474.04075 -5,0"
       style="fill:none;stroke:#000000;stroke-width:0.625;stroke-linecap:butt;stroke-linejoin:round;stroke-miterlimit:10;stroke-opacity:1;stroke-dasharray:none"
       id="path3318" />
    <path
       d="m 162.92635,584.29075 5,0"
       style="fill:none;stroke:#000000;stroke-width:0.625;stroke-linecap:butt;stroke-linejoin:round;stroke-miterlimit:10;stroke-opacity:1;stroke-dasharray:none"
       id="path3324" />
    <path
       d="m 603.92635,584.29075 -5,0"
       style="fill:none;stroke:#000000;stroke-width:0.625;stroke-linecap:butt;stroke-linejoin:round;stroke-miterlimit:10;stroke-opacity:1;stroke-dasharray:none"
       id="path3326" />
    <path
       d="m 162.92635,143.29075 441,0"
       style="fill:none;stroke:#000000;stroke-width:1.25;stroke-linecap:square;stroke-linejoin:round;stroke-miterlimit:10;stroke-opacity:1;stroke-dasharray:none"
       id="path3332" />
    <path
       d="m 603.92635,584.29075 0,-441"
       style="fill:none;stroke:#000000;stroke-width:1.25;stroke-linecap:square;stroke-linejoin:round;stroke-miterlimit:10;stroke-opacity:1;stroke-dasharray:none"
       id="path3334" />
    <path
       d="m 162.92635,584.29075 441,0"
       style="fill:none;stroke:#000000;stroke-width:1.25;stroke-linecap:square;stroke-linejoin:round;stroke-miterlimit:10;stroke-opacity:1;stroke-dasharray:none"
       id="path3336" />
    <path
       d="m 162.92635,584.29075 0,-441"
       style="fill:none;stroke:#000000;stroke-width:1.25;stroke-linecap:square;stroke-linejoin:round;stroke-miterlimit:10;stroke-opacity:1;stroke-dasharray:none"
       id="path3338" />
    <path
       style="fill:none;stroke:#000000;stroke-width:4;stroke-linecap:butt;stroke-linejoin:miter;stroke-opacity:1;stroke-miterlimit:4;stroke-dasharray:none;marker-end:url(#Arrow1Mend);marker-start:url(#Arrow1Mstart)"
       d="M 155.56349,531.94161 154.55334,53.484643 641.04076,54.790662"
       id="path3807"
       transform="translate(8.0357286,87.54075)"
       sodipodi:nodetypes="ccc" />
    <text
       xml:space="preserve"
       style="font-size:36px;font-style:normal;font-weight:bold;fill:#000000;fill-opacity:1;stroke:none;font-family:Bitstream Vera Sans;-inkscape-font-specification:Andale Mono Bold"
       x="121.75002"
       y="600.89789"
       id="text5428"><tspan
         sodipodi:role="line"
         id="tspan5430"
         x="121.75002"
         y="600.89789">z</tspan></text>
    <text
       xml:space="preserve"
       style="font-size:36px;font-style:normal;font-weight:bold;fill:#000000;fill-opacity:1;stroke:none;font-family:Bitstream Vera Sans;-inkscape-font-specification:Andale Mono Bold"
       x="595.17853"
       y="125.75504"
       id="text5432"><tspan
         sodipodi:role="line"
         id="tspan5434"
         x="595.17853"
         y="125.75504">x</tspan></text>
  </g>
</svg>
