<?xml version="1.0" encoding="UTF-8" standalone="no"?>
<!-- Created with Inkscape (http://www.inkscape.org/) -->

<svg
   xmlns:dc="http://purl.org/dc/elements/1.1/"
   xmlns:cc="http://creativecommons.org/ns#"
   xmlns:rdf="http://www.w3.org/1999/02/22-rdf-syntax-ns#"
   xmlns:svg="http://www.w3.org/2000/svg"
   xmlns="http://www.w3.org/2000/svg"
   xmlns:sodipodi="http://sodipodi.sourceforge.net/DTD/sodipodi-0.dtd"
   xmlns:inkscape="http://www.inkscape.org/namespaces/inkscape"
   id="svg2"
   version="1.1"
   inkscape:version="0.47 r22583"
   width="1025"
   height="771.25"
   xml:space="preserve"
   sodipodi:docname="axis-bottom.pdf"><metadata
     id="metadata8"><rdf:RDF><cc:Work
         rdf:about=""><dc:format>image/svg+xml</dc:format><dc:type
           rdf:resource="http://purl.org/dc/dcmitype/StillImage" /><dc:title></dc:title></cc:Work></rdf:RDF></metadata><defs
     id="defs6"><inkscape:perspective
       sodipodi:type="inkscape:persp3d"
       inkscape:vp_x="0 : 0.5 : 1"
       inkscape:vp_y="0 : 1000 : 0"
       inkscape:vp_z="1 : 0.5 : 1"
       inkscape:persp3d-origin="0.5 : 0.33333333 : 1"
       id="perspective10" /></defs><sodipodi:namedview
     pagecolor="#ffffff"
     bordercolor="#666666"
     borderopacity="1"
     objecttolerance="10"
     gridtolerance="10"
     guidetolerance="10"
     inkscape:pageopacity="0"
     inkscape:pageshadow="2"
     inkscape:window-width="1280"
     inkscape:window-height="748"
     id="namedview4"
     showgrid="false"
     inkscape:zoom="0.61199352"
     inkscape:cx="583.83413"
     inkscape:cy="353.22043"
     inkscape:window-x="0"
     inkscape:window-y="25"
     inkscape:window-maximized="1"
     inkscape:current-layer="g12" /><g
     id="g12"
     inkscape:groupmode="layer"
     inkscape:label="axis-bottom"
     transform="matrix(1.25,0,0,-1.25,0,771.25)"><text
       transform="matrix(0.98760211,-0.15697793,-0.15697793,-0.98760211,0,0)"
       id="text16"
       x="253.75021"
       y="-116.75033"
       style="font-size:12px"><tspan
         style="font-size:22px;font-style:oblique;font-variant:normal;font-weight:bold;writing-mode:lr-tb;fill:#000000;fill-opacity:1;fill-rule:nonzero;stroke:none;font-family:Helvetica;-inkscape-font-specification:Helvetica-BoldOblique"
         x="253.75021"
         y="-116.75033"
         id="tspan18">Easting [m]</tspan></text>
<text
       transform="matrix(1,0,0,-1,191.2332,110.17857)"
       id="text20"><tspan
         style="fill:#020202;fill-opacity:1;fill-rule:nonzero;stroke:none;font-family:Helvetica;font-style:oblique;font-variant:normal;font-weight:bold;font-size:15;writing-mode:lr;-inkscape-font-specification:Helvetica-BoldOblique"
         x="0 8.34 16.68 25.02 33.36 41.7"
         y="0"
         sodipodi:role="line"
         id="tspan22">10625.</tspan></text>
<text
       transform="matrix(1,0,0,-1,255.31137,98.159088)"
       id="text24"><tspan
         style="fill:#020202;fill-opacity:1;fill-rule:nonzero;stroke:none;font-family:Helvetica;font-style:oblique;font-variant:normal;font-weight:bold;font-size:15;writing-mode:lr;-inkscape-font-specification:Helvetica-BoldOblique"
         x="0 8.34 16.68 25.02 33.36 41.7"
         y="0"
         sodipodi:role="line"
         id="tspan26">10953.</tspan></text>
<text
       transform="matrix(1,0,0,-1,320.39072,87.141235)"
       id="text28"><tspan
         style="fill:#020202;fill-opacity:1;fill-rule:nonzero;stroke:none;font-family:Helvetica;font-style:oblique;font-variant:normal;font-weight:bold;font-size:15;writing-mode:lr;-inkscape-font-specification:Helvetica-BoldOblique"
         x="0 8.34 16.68 25.02 33.36 41.7"
         y="0"
         sodipodi:role="line"
         id="tspan30">11282.</tspan></text>
<text
       transform="matrix(1,0,0,-1,385.47012,76.123367)"
       id="text32"><tspan
         style="fill:#020202;fill-opacity:1;fill-rule:nonzero;stroke:none;font-family:Helvetica;font-style:oblique;font-variant:normal;font-weight:bold;font-size:15;writing-mode:lr;-inkscape-font-specification:Helvetica-BoldOblique"
         x="0 8.34 16.68 25.02 33.36 41.7"
         y="0"
         sodipodi:role="line"
         id="tspan34">11610.</tspan></text>
<text
       transform="scale(1,-1)"
       id="text36"
       x="440.94943"
       y="-68.305511"><tspan
         style="font-size:15px;font-style:oblique;font-variant:normal;font-weight:bold;writing-mode:lr-tb;fill:#020202;fill-opacity:1;fill-rule:nonzero;stroke:none;font-family:Helvetica;-inkscape-font-specification:Helvetica-BoldOblique"
         x="440.94943 449.28943 457.62943 465.96945 474.30945 482.64944"
         y="-68.305511"
         sodipodi:role="line"
         id="tspan38">11938.</tspan></text>
<text
       transform="matrix(0.01596802,0.9998725,0.9998725,-0.01596802,0,0)"
       id="text40"
       x="160.52405"
       y="168.23912"
       style="font-size:12px"><tspan
         style="font-size:22px;font-style:oblique;font-variant:normal;font-weight:bold;writing-mode:lr-tb;fill:#000000;fill-opacity:1;fill-rule:nonzero;stroke:none;font-family:Helvetica;-inkscape-font-specification:Helvetica-BoldOblique"
         x="160.52405"
         y="168.23912"
         id="tspan42">Height [m]</tspan></text>
<text
       transform="matrix(1,0,0,-1,184.22465,293.47565)"
       id="text44"><tspan
         style="fill:#020202;fill-opacity:1;fill-rule:nonzero;stroke:none;font-family:Helvetica;font-style:oblique;font-variant:normal;font-weight:bold;font-size:15;writing-mode:lr;-inkscape-font-specification:Helvetica-BoldOblique"
         x="0 8.34 16.68 25.02 33.36"
         y="0"
         sodipodi:role="line"
         id="tspan46">1314.</tspan></text>
<text
       transform="matrix(1,0,0,-1,181.22099,251.40747)"
       id="text48"><tspan
         style="fill:#020202;fill-opacity:1;fill-rule:nonzero;stroke:none;font-family:Helvetica;font-style:oblique;font-variant:normal;font-weight:bold;font-size:15;writing-mode:lr;-inkscape-font-specification:Helvetica-BoldOblique"
         x="0 8.34 16.68 25.02 33.36"
         y="0"
         sodipodi:role="line"
         id="tspan50">1086.</tspan></text>
<text
       transform="matrix(1,0,0,-1,179.21855,209.33928)"
       id="text52"><tspan
         style="fill:#020202;fill-opacity:1;fill-rule:nonzero;stroke:none;font-family:Helvetica;font-style:oblique;font-variant:normal;font-weight:bold;font-size:15;writing-mode:lr;-inkscape-font-specification:Helvetica-BoldOblique"
         x="0 8.34 16.68 25.02"
         y="0"
         sodipodi:role="line"
         id="tspan54">857.</tspan></text>
<text
       transform="matrix(1,0,0,-1,177.21611,166.26948)"
       id="text56"><tspan
         style="fill:#020202;fill-opacity:1;fill-rule:nonzero;stroke:none;font-family:Helvetica;font-style:oblique;font-variant:normal;font-weight:bold;font-size:15;writing-mode:lr;-inkscape-font-specification:Helvetica-BoldOblique"
         x="0 8.34 16.68 25.02"
         y="0"
         sodipodi:role="line"
         id="tspan58">629.</tspan></text>
<text
       transform="matrix(1,0,0,-1,175.21367,124.20131)"
       id="text60"><tspan
         style="fill:#020202;fill-opacity:1;fill-rule:nonzero;stroke:none;font-family:Helvetica;font-style:oblique;font-variant:normal;font-weight:bold;font-size:15;writing-mode:lr;-inkscape-font-specification:Helvetica-BoldOblique"
         x="0 8.34 16.68 25.02"
         y="0"
         sodipodi:role="line"
         id="tspan62">400.</tspan></text>
<text
       transform="matrix(0.76968614,0.63842246,0.63842246,-0.76968614,0,0)"
       id="text64"
       x="512.60199"
       y="300.54401"
       style="font-size:12px"><tspan
         style="font-size:22px;font-style:oblique;font-variant:normal;font-weight:bold;writing-mode:lr-tb;fill:#000000;fill-opacity:1;fill-rule:nonzero;stroke:none;font-family:Helvetica;-inkscape-font-specification:Helvetica-BoldOblique"
         x="512.60199"
         y="300.54401"
         id="tspan66">Northing [m]</tspan></text>
<text
       transform="scale(1,-1)"
       id="text68"
       x="485.34238"
       y="-78.568024"><tspan
         style="font-size:15px;font-style:oblique;font-variant:normal;font-weight:bold;writing-mode:lr-tb;fill:#020202;fill-opacity:1;fill-rule:nonzero;stroke:none;font-family:Helvetica;-inkscape-font-specification:Helvetica-BoldOblique"
         x="485.34238 493.68237 502.02237 510.36237 518.70239 527.04236"
         y="-78.568024"
         sodipodi:role="line"
         id="tspan70">17044.</tspan></text>
<text
       transform="matrix(1,0,0,-1,535.65326,118.19154)"
       id="text72"><tspan
         style="fill:#020202;fill-opacity:1;fill-rule:nonzero;stroke:none;font-family:Helvetica;font-style:oblique;font-variant:normal;font-weight:bold;font-size:15;writing-mode:lr;-inkscape-font-specification:Helvetica-BoldOblique"
         x="0 8.34 16.68 25.02 33.36 41.7"
         y="0"
         sodipodi:role="line"
         id="tspan74">16577.</tspan></text>
<text
       transform="matrix(1,0,0,-1,596.72772,169.27435)"
       id="text76"><tspan
         style="fill:#020202;fill-opacity:1;fill-rule:nonzero;stroke:none;font-family:Helvetica;font-style:oblique;font-variant:normal;font-weight:bold;font-size:15;writing-mode:lr;-inkscape-font-specification:Helvetica-BoldOblique"
         x="0 8.34 16.68 25.02 33.36 41.7"
         y="0"
         sodipodi:role="line"
         id="tspan78">16110.</tspan></text>
<text
       transform="matrix(1,0,0,-1,658.80341,219.35551)"
       id="text80"><tspan
         style="fill:#020202;fill-opacity:1;fill-rule:nonzero;stroke:none;font-family:Helvetica;font-style:oblique;font-variant:normal;font-weight:bold;font-size:15;writing-mode:lr;-inkscape-font-specification:Helvetica-BoldOblique"
         x="0 8.34 16.68 25.02 33.36 41.7"
         y="0"
         sodipodi:role="line"
         id="tspan82">15643.</tspan></text>
<text
       transform="matrix(1,0,0,-1,720.87915,270.43832)"
       id="text84"><tspan
         style="fill:#020202;fill-opacity:1;fill-rule:nonzero;stroke:none;font-family:Helvetica;font-style:oblique;font-variant:normal;font-weight:bold;font-size:15;writing-mode:lr;-inkscape-font-specification:Helvetica-BoldOblique"
         x="0 8.34 16.68 25.02 33.36 41.7"
         y="0"
         sodipodi:role="line"
         id="tspan86">15176.</tspan></text>
<path
       d="m 218.00001,130.99998 -4.99293,0.26592 m 4.99293,-0.26592 -0.85591,-4.92619 M 282.75,119.75 l -0.8559,-4.92621 m 65.6059,-6.3238 -0.8559,-4.9262 M 412.25,97.25 411.39407,92.323792 M 477,86 476.1441,81.073792 M 477,86 480.16534,82.129517 M 218.00001,130.99998 477,86 m -256.74999,87.25 -4.99293,0.2659 m 7.24293,41.9841 -4.99293,0.2659 m 7.24292,41.9841 -4.99292,0.2659 M 227,300 l -4.99294,0.2659 M 227,300 218.00001,130.99998 M 477,86 724,288 m -185.25,-151.5 3.1654,-3.87048 M 600.5,187 l 3.16534,-3.87048 M 662.25,237.5 l 3.16534,-3.87048 M 724,288 l 3.16534,-3.87048"
       style="fill:none;stroke:#000000;stroke-opacity:1;stroke-width:2.0999;stroke-linecap:butt;stroke-linejoin:miter;stroke-miterlimit:10;stroke-dasharray:none"
       id="path88" /></g></svg>